<?xml version="1.0" encoding="utf-8"?>
<!-- Generator: Adobe Illustrator 16.0.3, SVG Export Plug-In . SVG Version: 6.00 Build 0)  -->
<!DOCTYPE svg PUBLIC "-//W3C//DTD SVG 1.0//EN" "http://www.w3.org/TR/2001/REC-SVG-20010904/DTD/svg10.dtd">
<svg version="1.0" id="Layer_1" xmlns="http://www.w3.org/2000/svg" xmlns:xlink="http://www.w3.org/1999/xlink" x="0px" y="0px"
	 width="831px" height="460px" viewBox="0 0 831 460" enable-background="new 0 0 831 460" xml:space="preserve">
<path d="M151.887,276.89c-5.542,0-10.653-1.007-15.332-3.022c-4.678-2.016-8.727-4.769-12.146-8.26
	c-3.418-3.491-6.1-7.612-8.043-12.362c-1.943-4.751-2.916-9.825-2.916-15.225v-0.215c0-5.398,0.954-10.455,2.861-15.17
	c1.908-4.715,4.589-8.854,8.044-12.417c3.455-3.562,7.558-6.37,12.309-8.421c4.75-2.051,10.005-3.077,15.763-3.077
	c3.455,0,6.604,0.288,9.447,0.864c2.843,0.576,5.452,1.386,7.828,2.429s4.571,2.286,6.586,3.725c2.015,1.439,3.923,3.022,5.722,4.75
	l-8.529,9.826c-3.023-2.808-6.227-5.074-9.609-6.802c-3.383-1.728-7.234-2.591-11.553-2.591c-3.599,0-6.928,0.702-9.987,2.105
	c-3.059,1.404-5.704,3.311-7.936,5.723c-2.231,2.411-3.959,5.236-5.182,8.476c-1.224,3.238-1.836,6.693-1.836,10.365v0.216
	c0,3.67,0.612,7.144,1.836,10.418c1.223,3.275,2.951,6.137,5.182,8.584s4.876,4.373,7.936,5.776c3.06,1.403,6.388,2.105,9.987,2.105
	c4.607,0,8.565-0.882,11.876-2.646c3.311-1.763,6.586-4.156,9.825-7.18l8.53,8.638c-1.944,2.087-3.977,3.94-6.101,5.56
	c-2.123,1.62-4.408,3.023-6.856,4.212c-2.447,1.188-5.128,2.087-8.043,2.698C158.635,276.584,155.414,276.89,151.887,276.89
	L151.887,276.89z M240.436,264.689c3.743,0,7.18-0.702,10.311-2.105s5.812-3.311,8.044-5.723c2.231-2.411,3.977-5.236,5.236-8.476
	c1.26-3.238,1.89-6.693,1.89-10.365v-0.215c0-3.671-0.63-7.145-1.89-10.419c-1.26-3.275-3.023-6.118-5.29-8.53
	c-2.268-2.411-4.984-4.336-8.152-5.776c-3.167-1.439-6.622-2.159-10.364-2.159c-3.743,0-7.181,0.702-10.312,2.105
	s-5.812,3.311-8.044,5.723c-2.231,2.411-3.977,5.236-5.236,8.476c-1.26,3.238-1.889,6.693-1.889,10.365v0.216
	c0,3.67,0.629,7.144,1.889,10.418c1.26,3.275,3.023,6.118,5.291,8.53c2.267,2.411,4.984,4.337,8.151,5.776
	S236.693,264.689,240.436,264.689L240.436,264.689z M240.22,276.89c-5.83,0-11.157-1.025-15.979-3.077
	c-4.822-2.051-8.962-4.84-12.417-8.367c-3.454-3.527-6.154-7.648-8.098-12.362c-1.943-4.715-2.915-9.735-2.915-15.062v-0.215
	c0-5.327,0.972-10.348,2.915-15.062c1.943-4.715,4.679-8.854,8.206-12.417c3.527-3.563,7.701-6.388,12.524-8.476
	c4.822-2.087,10.149-3.13,15.979-3.13s11.156,1.025,15.979,3.077c4.823,2.051,8.962,4.841,12.417,8.368
	c3.455,3.527,6.154,7.648,8.098,12.362c1.943,4.715,2.915,9.735,2.915,15.062v0.216c0,5.326-0.972,10.347-2.915,15.061
	c-1.943,4.715-4.679,8.854-8.205,12.417c-3.527,3.563-7.702,6.388-12.524,8.476C251.376,275.846,246.05,276.89,240.22,276.89
	L240.22,276.89z M331.792,263.502c3.958,0,7.558-0.63,10.797-1.89c3.238-1.26,5.992-3.023,8.26-5.29
	c2.267-2.268,4.03-4.967,5.29-8.099c1.26-3.131,1.89-6.531,1.89-10.203v-0.215c0-3.671-0.63-7.091-1.89-10.258
	s-3.023-5.884-5.29-8.151c-2.268-2.268-5.021-4.049-8.26-5.344c-3.239-1.296-6.839-1.943-10.797-1.943h-14.899v51.393H331.792
	L331.792,263.502z M303.612,200.016h28.181c5.902,0,11.318,0.954,16.249,2.861s9.178,4.552,12.74,7.936
	c3.562,3.383,6.316,7.36,8.26,11.931c1.943,4.57,2.915,9.519,2.915,14.846v0.216c0,5.326-0.972,10.293-2.915,14.899
	s-4.697,8.602-8.26,11.984s-7.81,6.046-12.74,7.989c-4.931,1.944-10.347,2.916-16.249,2.916h-28.181V200.016L303.612,200.016z
	 M426.711,276.782c-4.895,0-9.32-0.702-13.279-2.105c-3.959-1.403-7.342-3.509-10.149-6.316s-4.967-6.28-6.479-10.419
	c-1.511-4.139-2.268-8.943-2.268-14.414v-43.511h13.28v42.972c0,7.054,1.692,12.416,5.074,16.087
	c3.384,3.671,8.062,5.506,14.037,5.506c5.902,0,10.545-1.763,13.928-5.29s5.074-8.781,5.074-15.764v-43.511h13.281v42.864
	c0,5.614-0.773,10.545-2.322,14.791c-1.547,4.247-3.725,7.793-6.531,10.636c-2.809,2.843-6.209,4.967-10.203,6.37
	S431.678,276.782,426.711,276.782L426.711,276.782z M511.59,276.674c-5.83,0-11.408-0.989-16.734-2.97
	c-5.326-1.979-10.258-5.02-14.793-9.123l7.99-9.501c3.672,3.168,7.379,5.597,11.121,7.288s7.99,2.537,12.74,2.537
	c4.104,0,7.359-0.863,9.771-2.591c2.41-1.728,3.617-4.031,3.617-6.91v-0.217c0-1.367-0.234-2.573-0.701-3.616
	c-0.469-1.044-1.332-2.033-2.592-2.969c-1.26-0.937-2.988-1.8-5.184-2.592s-5.057-1.583-8.584-2.375
	c-4.029-0.936-7.611-1.997-10.742-3.186c-3.131-1.188-5.758-2.627-7.881-4.318s-3.744-3.761-4.859-6.209
	c-1.115-2.447-1.674-5.397-1.674-8.853v-0.216c0-3.239,0.648-6.208,1.943-8.908c1.297-2.699,3.078-5.002,5.346-6.91
	c2.266-1.908,4.984-3.401,8.15-4.48c3.168-1.08,6.623-1.62,10.365-1.62c5.543,0,10.527,0.81,14.953,2.43
	c4.428,1.619,8.584,3.977,12.471,7.072l-7.125,10.041c-3.455-2.519-6.875-4.444-10.258-5.776s-6.801-1.998-10.256-1.998
	c-3.889,0-6.91,0.864-9.07,2.591c-2.158,1.727-3.238,3.851-3.238,6.37v0.217c0,1.439,0.252,2.717,0.756,3.832
	c0.504,1.116,1.422,2.124,2.752,3.023c1.332,0.9,3.168,1.745,5.506,2.537c2.34,0.792,5.309,1.62,8.908,2.483
	c3.959,1.008,7.469,2.124,10.527,3.347c3.059,1.225,5.596,2.718,7.611,4.481s3.545,3.814,4.59,6.154
	c1.043,2.339,1.564,5.057,1.564,8.151v0.216c0,3.527-0.666,6.694-1.996,9.502c-1.332,2.807-3.186,5.183-5.561,7.125
	c-2.375,1.943-5.219,3.42-8.529,4.427C519.184,276.17,515.549,276.674,511.59,276.674z"/>
</svg>
