<?xml version="1.0" encoding="utf-8"?>
<!-- Generator: Adobe Illustrator 16.0.3, SVG Export Plug-In . SVG Version: 6.00 Build 0)  -->
<!DOCTYPE svg PUBLIC "-//W3C//DTD SVG 1.0//EN" "http://www.w3.org/TR/2001/REC-SVG-20010904/DTD/svg10.dtd">
<svg version="1.0" id="Layer_1" xmlns="http://www.w3.org/2000/svg" xmlns:xlink="http://www.w3.org/1999/xlink" x="0px" y="0px"
	 width="792px" height="612px" viewBox="0 0 792 612" enable-background="new 0 0 792 612" xml:space="preserve">
<path fill-rule="evenodd" clip-rule="evenodd" fill="#00A7D2" d="M427.969,54.885c-54.478,19.107-104.354,42.822-147.961,72.803
	c-68.98,47.423-86.502,110.992-10.387,169.508c52.318,40.226,157.643,99.724,227.006,90.113
	c72.593-10.064,84.246-93.284,31.423-134.739C476.37,212,363.131,206.36,386.048,116.975
	C392.08,93.469,407.013,73.109,427.969,54.885z"/>
<path fill-rule="evenodd" clip-rule="evenodd" fill="#00A7D2" d="M489.682,190.839c40.253,0,73.084-32.831,73.084-73.084
	c0-40.253-32.831-73.084-73.084-73.084s-73.083,32.831-73.083,73.084C416.599,158.008,449.429,190.839,489.682,190.839z"/>
<path d="M115.567,568.328c-8.942,0-17.187-1.625-24.735-4.877s-14.081-7.693-19.597-13.325c-5.516-5.633-9.842-12.281-12.977-19.945
	c-3.136-7.664-4.704-15.852-4.704-24.562v-0.348c0-8.71,1.539-16.868,4.616-24.475c3.078-7.606,7.403-14.283,12.978-20.032
	c5.574-5.748,12.193-10.277,19.858-13.587c7.664-3.31,16.142-4.964,25.432-4.964c5.574,0,10.654,0.464,15.242,1.394
	c4.587,0.929,8.796,2.235,12.629,3.919s7.374,3.688,10.626,6.01c3.251,2.322,6.329,4.877,9.232,7.664l-13.761,15.852
	c-4.877-4.529-10.045-8.187-15.503-10.974c-5.458-2.787-11.671-4.181-18.639-4.181c-5.807,0-11.177,1.132-16.113,3.396
	s-9.203,5.342-12.803,9.232c-3.6,3.89-6.387,8.448-8.361,13.674c-1.975,5.226-2.961,10.8-2.961,16.723v0.349
	c0,5.922,0.987,11.525,2.961,16.809c1.974,5.284,4.761,9.9,8.361,13.849s7.868,7.055,12.803,9.319s10.306,3.396,16.113,3.396
	c7.432,0,13.819-1.422,19.161-4.268c5.342-2.845,10.625-6.706,15.852-11.584l13.761,13.936c-3.136,3.368-6.416,6.358-9.842,8.971
	c-3.425,2.613-7.112,4.878-11.061,6.794c-3.948,1.916-8.274,3.368-12.977,4.354C126.455,567.835,121.258,568.328,115.567,568.328
	L115.567,568.328z M258.429,548.645c6.039,0,11.584-1.132,16.635-3.396c5.052-2.265,9.377-5.342,12.978-9.232
	c3.6-3.89,6.416-8.448,8.448-13.674s3.048-10.8,3.048-16.723v-0.348c0-5.923-1.016-11.526-3.048-16.81
	c-2.032-5.284-4.877-9.871-8.536-13.762c-3.658-3.891-8.042-6.996-13.151-9.319c-5.109-2.322-10.684-3.483-16.722-3.483
	s-11.584,1.132-16.635,3.396c-5.052,2.265-9.377,5.342-12.978,9.232c-3.6,3.89-6.416,8.448-8.448,13.674s-3.048,10.8-3.048,16.723
	v0.349c0,5.922,1.016,11.525,3.048,16.809c2.032,5.284,4.877,9.871,8.535,13.762c3.658,3.891,8.042,6.997,13.152,9.319
	C246.816,547.483,252.39,548.645,258.429,548.645L258.429,548.645z M258.081,568.328c-9.406,0-18-1.654-25.781-4.964
	c-7.78-3.31-14.458-7.81-20.032-13.5s-9.929-12.339-13.064-19.945s-4.703-15.706-4.703-24.3v-0.348c0-8.594,1.568-16.693,4.703-24.3
	s7.548-14.284,13.239-20.032c5.69-5.749,12.425-10.307,20.206-13.675c7.78-3.367,16.374-5.051,25.78-5.051s18,1.654,25.78,4.964
	c7.781,3.31,14.458,7.81,20.032,13.5c5.574,5.69,9.929,12.339,13.064,19.945c3.136,7.606,4.703,15.706,4.703,24.3v0.349
	c0,8.593-1.567,16.693-4.703,24.299c-3.135,7.606-7.548,14.284-13.238,20.032c-5.69,5.749-12.426,10.307-20.207,13.675
	C276.08,566.645,267.487,568.328,258.081,568.328L258.081,568.328z M405.819,546.729c6.387,0,12.193-1.016,17.419-3.048
	s9.668-4.878,13.326-8.535c3.657-3.658,6.503-8.014,8.535-13.065c2.032-5.051,3.049-10.538,3.049-16.461v-0.348
	c0-5.923-1.017-11.439-3.049-16.549s-4.878-9.493-8.535-13.151c-3.658-3.658-8.101-6.532-13.326-8.622
	c-5.226-2.091-11.032-3.136-17.419-3.136h-24.039v82.915H405.819L405.819,546.729z M360.355,444.304h45.464
	c9.522,0,18.261,1.539,26.216,4.616s14.807,7.345,20.555,12.803s10.19,11.875,13.326,19.249c3.135,7.374,4.702,15.357,4.702,23.951
	v0.349c0,8.593-1.567,16.606-4.702,24.038c-3.136,7.433-7.578,13.877-13.326,19.335s-12.6,9.755-20.555,12.891
	s-16.693,4.703-26.216,4.703h-45.464V444.304L360.355,444.304z M558.958,568.154c-7.896,0-15.038-1.132-21.425-3.396
	c-6.388-2.265-11.846-5.661-16.375-10.19s-8.013-10.132-10.451-16.81s-3.658-14.429-3.658-23.255v-70.199h21.426v69.329
	c0,11.38,2.729,20.031,8.187,25.954c5.459,5.923,13.007,8.884,22.646,8.884c9.522,0,17.013-2.845,22.471-8.535
	s8.188-14.168,8.188-25.433v-70.199h21.425v69.154c0,9.059-1.248,17.013-3.745,23.864c-2.496,6.852-6.009,12.571-10.538,17.158
	s-10.017,8.013-16.461,10.277C574.2,567.022,566.971,568.154,558.958,568.154L558.958,568.154z M695.897,567.98
	c-9.406,0-18.406-1.597-27-4.791c-8.594-3.193-16.548-8.1-23.864-14.719l12.891-15.329c5.922,5.11,11.902,9.029,17.941,11.758
	c6.038,2.729,12.891,4.094,20.555,4.094c6.619,0,11.874-1.394,15.765-4.181c3.89-2.787,5.835-6.503,5.835-11.148v-0.349
	c0-2.206-0.377-4.151-1.132-5.835s-2.148-3.28-4.181-4.79s-4.819-2.903-8.361-4.181s-8.158-2.555-13.849-3.832
	c-6.503-1.51-12.28-3.223-17.332-5.139s-9.29-4.239-12.716-6.968c-3.426-2.729-6.039-6.067-7.839-10.017
	c-1.8-3.948-2.7-8.709-2.7-14.283v-0.349c0-5.226,1.046-10.016,3.136-14.371c2.091-4.354,4.965-8.07,8.623-11.148
	c3.657-3.077,8.042-5.486,13.151-7.229s10.684-2.613,16.722-2.613c8.942,0,16.984,1.307,24.126,3.92
	c7.142,2.612,13.849,6.416,20.119,11.409l-11.497,16.2c-5.573-4.064-11.09-7.171-16.548-9.319s-10.974-3.223-16.548-3.223
	c-6.271,0-11.148,1.394-14.633,4.181c-3.483,2.787-5.226,6.213-5.226,10.277v0.349c0,2.322,0.406,4.384,1.22,6.184
	c0.812,1.8,2.294,3.426,4.441,4.877c2.148,1.452,5.11,2.816,8.884,4.094c3.774,1.277,8.564,2.613,14.371,4.007
	c6.387,1.626,12.049,3.426,16.984,5.399c4.935,1.975,9.028,4.384,12.28,7.229c3.251,2.845,5.719,6.154,7.403,9.929
	c1.684,3.774,2.525,8.158,2.525,13.151v0.349c0,5.69-1.074,10.8-3.223,15.329c-2.148,4.528-5.139,8.361-8.971,11.496
	c-3.832,3.136-8.419,5.517-13.761,7.142C708.148,567.167,702.284,567.98,695.897,567.98z"/>
</svg>
